<svg xmlns="http://www.w3.org/2000/svg" width="28.466" height="34.331" viewBox="0 0 28.466 34.331">
  <g id="Layer_2" data-name="Layer 2" transform="translate(-13.597 0.002)">
    <g id="Layer_1" data-name="Layer 1" transform="translate(13.597 -0.002)">
      <path id="Path_486" data-name="Path 486" d="M92.509,33.327a.471.471,0,0,1-.471-.471V25.55a8.144,8.144,0,1,0-16.288,0l0,7.275a.471.471,0,1,1-.942,0V25.55A9.093,9.093,0,0,1,93,25.55v7.306a.471.471,0,0,1-.487.471Z" transform="translate(-69.661 -11.291)" fill="#000000"/>
      <path id="Path_487" data-name="Path 487" d="M95.765,32.883a.471.471,0,0,1-.471-.471v-1.52a5.4,5.4,0,1,0-10.792,0v1.5a.471.471,0,1,1-.942,0v-1.5a6.338,6.338,0,1,1,12.676,0v1.52A.471.471,0,0,1,95.765,32.883Z" transform="translate(-75.661 -16.841)" fill="#000000"/>
      <path id="Path_488" data-name="Path 488" d="M67.051,28.321a.471.471,0,0,1-.471-.471V19.536C66.58,13.451,71.817,8.5,78.254,8.5a11.878,11.878,0,0,1,8.239,3.225,10.676,10.676,0,0,1,3.429,7.812v8.274a.471.471,0,1,1-.942,0V19.536a9.734,9.734,0,0,0-3.14-7.127,10.946,10.946,0,0,0-7.589-2.967c-5.919,0-10.732,4.528-10.732,10.095V27.85a.471.471,0,0,1-.468.471Z" transform="translate(-64.016 -5.83)" fill="#000000"/>
      <path id="Path_489" data-name="Path 489" d="M58.891,23.843a.471.471,0,0,1-.471-.471V13.456C58.42,6.034,64.806,0,72.659,0A14.494,14.494,0,0,1,82.707,3.933a13,13,0,0,1,4.179,9.523v9.878a.471.471,0,0,1-.942,0V13.456a12.07,12.07,0,0,0-3.887-8.839,13.555,13.555,0,0,0-9.4-3.677c-7.332,0-13.3,5.614-13.3,12.515v9.916A.471.471,0,0,1,58.891,23.843Z" transform="translate(-58.42 0.002)" fill="#000000"/>
      <path id="Path_490" data-name="Path 490" d="M64.14,85.827a5.884,5.884,0,1,1,4.534-9.633.472.472,0,0,1-.725.6,4.939,4.939,0,1,0,.126,6.138.472.472,0,0,1,.75.571A5.843,5.843,0,0,1,64.14,85.827Z" transform="translate(-57.652 -51.497)" fill="#000000"/>
      <path id="Path_491" data-name="Path 491" d="M117.505,85.828a5.884,5.884,0,1,1,4.123-10.079.472.472,0,0,1-.663.672,4.955,4.955,0,1,0,1.447,4h-4.082a.471.471,0,1,1,0-.942H122.9a.471.471,0,0,1,.471.471,5.89,5.89,0,0,1-5.868,5.881Z" transform="translate(-95.526 -51.497)" fill="#000000"/>
      <path id="Path_492" data-name="Path 492" d="M118.262,56.222h-2.751a.471.471,0,0,1,0-.942h2.751a.471.471,0,0,1,0,.942Z" transform="translate(-97.601 -38.33)" fill="#000000"/>
      <path id="Path_493" data-name="Path 493" d="M75.279,67.535a.471.471,0,0,1-.452-.606l3-10.289a.132.132,0,0,1,0-.031,2.016,2.016,0,0,1,1.256-1.237,2.041,2.041,0,0,1,.6-.091H81.3a.471.471,0,1,1,0,.942H79.7a1.115,1.115,0,0,0-.314.047,1.09,1.09,0,0,0-.653.653l-3,10.274A.474.474,0,0,1,75.279,67.535Z" transform="translate(-69.275 -38.445)" fill="#000000"/>
      <path id="Path_494" data-name="Path 494" d="M119.2,65.972a.468.468,0,0,1-.4-.22l-4.145-6.609a1.061,1.061,0,0,1,.031-1.165l1.532-2.167a.472.472,0,0,1,.766.553l-1.529,2.167a.113.113,0,0,0,0,.126L119.6,65.25a.474.474,0,0,1-.4.722Z" transform="translate(-97.273 -38.655)" fill="#000000"/>
      <path id="Path_495" data-name="Path 495" d="M93.375,64.662H83.491a.471.471,0,0,1,0-.942h9.884a.471.471,0,1,1,0,.942Z" transform="translate(-75.211 -44.182)" fill="#000000"/>
      <path id="Path_496" data-name="Path 496" d="M98.62,92.188H97.587a.474.474,0,0,1-.408-.236l-1.055-1.831h-.763a.471.471,0,1,1,0-.942h1.033a.474.474,0,0,1,.408.235l1.058,1.831h.76a.471.471,0,0,1,0,.942Z" transform="translate(-83.388 -61.863)" fill="#000000"/>
    </g>
  </g>
</svg>