<svg xmlns="http://www.w3.org/2000/svg" width="53.943" height="43.488" viewBox="0 0 53.943 43.488">
  <g id="Layer_2" data-name="Layer 2" transform="translate(0.018 0.002)">
    <g id="Layer_1" data-name="Layer 1" transform="translate(-0.018 -0.002)">
      <path id="Path_486" data-name="Path 486" d="M89.532,30.49a.392.392,0,0,1-.392-.392V24.021a6.774,6.774,0,1,0-13.548,0v6.051a.392.392,0,1,1-.784,0V24.021a7.563,7.563,0,0,1,15.127,0V30.1a.392.392,0,0,1-.4.392Z" transform="translate(-55.267 -12.161)" fill="#a4c558"/>
      <path id="Path_487" data-name="Path 487" d="M93.712,31.481a.392.392,0,0,1-.392-.392V29.826a4.489,4.489,0,1,0-8.976,0v1.246a.392.392,0,1,1-.784,0V29.826a5.272,5.272,0,1,1,10.543,0V31.09A.392.392,0,0,1,93.712,31.481Z" transform="translate(-61.732 -18.138)" fill="#a4c558"/>
      <path id="Path_488" data-name="Path 488" d="M66.972,24.987a.392.392,0,0,1-.392-.392V17.679A9.468,9.468,0,0,1,76.29,8.5a9.88,9.88,0,0,1,6.853,2.682A8.88,8.88,0,0,1,86,17.679v6.882a.392.392,0,1,1-.784,0V17.679A8.1,8.1,0,0,0,82.6,11.751a9.1,9.1,0,0,0-6.312-2.468,8.683,8.683,0,0,0-8.927,8.4v6.916a.392.392,0,0,1-.389.392Z" transform="translate(-49.187 -6.279)" fill="#a4c558"/>
      <path id="Path_489" data-name="Path 489" d="M58.812,19.832a.392.392,0,0,1-.392-.392V11.193C58.42,5.019,63.732,0,70.264,0a12.056,12.056,0,0,1,8.357,3.272A10.815,10.815,0,0,1,82.1,11.193v8.216a.392.392,0,0,1-.784,0V11.193a10.039,10.039,0,0,0-3.233-7.352A11.275,11.275,0,0,0,70.264.782c-6.1,0-11.061,4.67-11.061,10.41V19.44A.392.392,0,0,1,58.812,19.832Z" transform="translate(-43.158 0.002)" fill="#a4c558"/>
      <path id="Path_490" data-name="Path 490" d="M63.15,83.848a4.894,4.894,0,1,1,3.771-8.013.392.392,0,0,1-.6.5,4.108,4.108,0,1,0,.1,5.106.392.392,0,0,1,.624.475A4.86,4.86,0,0,1,63.15,83.848Z" transform="translate(-43.035 -54.717)" fill="#48b170"/>
      <path id="Path_491" data-name="Path 491" d="M116.515,83.848a4.894,4.894,0,1,1,3.429-8.384.392.392,0,0,1-.551.559,4.122,4.122,0,1,0,1.2,3.325h-3.4a.392.392,0,0,1,0-.784H121a.392.392,0,0,1,.392.392,4.9,4.9,0,0,1-4.881,4.892Z" transform="translate(-82.461 -54.717)" fill="#48b170"/>
      <path id="Path_492" data-name="Path 492" d="M117.72,56.064h-2.288a.392.392,0,0,1,0-.784h2.288a.392.392,0,1,1,0,.784Z" transform="translate(-84.99 -40.842)" fill="#48b170"/>
      <path id="Path_493" data-name="Path 493" d="M75.2,65.473a.392.392,0,0,1-.376-.5l2.5-8.559a.109.109,0,0,1,0-.026,1.677,1.677,0,0,1,1.045-1.029,1.7,1.7,0,0,1,.5-.076h1.345a.392.392,0,0,1,0,.784H78.879a.927.927,0,0,0-.261.039.906.906,0,0,0-.543.543l-2.5,8.545A.394.394,0,0,1,75.2,65.473Z" transform="translate(-55.265 -40.842)" fill="#48b170"/>
      <path id="Path_494" data-name="Path 494" d="M118.405,64.23a.389.389,0,0,1-.332-.183l-3.447-5.5a.883.883,0,0,1,.026-.969l1.275-1.8a.393.393,0,0,1,.637.46l-1.272,1.8a.094.094,0,0,0,0,.1l3.447,5.485a.394.394,0,0,1-.332.6Z" transform="translate(-84.587 -41.09)" fill="#48b170"/>
      <path id="Path_495" data-name="Path 495" d="M91.633,64.5H83.412a.392.392,0,1,1,0-.784h8.222a.392.392,0,1,1,0,.784Z" transform="translate(-61.333 -47.078)" fill="#48b170"/>
      <path id="Path_496" data-name="Path 496" d="M97.993,91.682h-.859a.394.394,0,0,1-.34-.2l-.878-1.523h-.635a.392.392,0,1,1,0-.784h.859a.394.394,0,0,1,.34.2l.88,1.523h.632a.392.392,0,0,1,0,.784Z" transform="translate(-70.103 -65.889)" fill="#48b170"/>
      <path id="Path_497" data-name="Path 497" d="M35.238,137.105a.261.261,0,0,0-.261.261v2.849a1.678,1.678,0,0,1-3.356-.005v-2.836a.27.27,0,0,0-.541,0v2.836a2.23,2.23,0,0,0,2.225,2.23,2.2,2.2,0,0,0,1.322-.434,1.943,1.943,0,0,0,.35-.332v.885a1.7,1.7,0,0,1-1.677,1.674,1.9,1.9,0,0,1-.951-.261,1.708,1.708,0,0,1-.663-.679.261.261,0,0,0-.308-.136l-.068.021a.282.282,0,0,0-.133.157.243.243,0,0,0,0,.214,2.16,2.16,0,0,0,.862.9,2.429,2.429,0,0,0,1.248.329,2.28,2.28,0,0,0,2.241-2.223v-5.187a.261.261,0,0,0-.29-.269Z" transform="translate(-22.958 -101.296)" fill="#1d2a3a"/>
      <path id="Path_498" data-name="Path 498" d="M54.55,137.2a2.8,2.8,0,0,0-.823-.131,2.729,2.729,0,1,0,.823,5.328.27.27,0,0,0,.081-.473.23.23,0,0,0-.243-.039,2.2,2.2,0,0,1-.661.1,2.176,2.176,0,0,1,0-4.348,2.217,2.217,0,0,1,.663.1.219.219,0,0,0,.238-.037.261.261,0,0,0,.11-.219v-.031A.261.261,0,0,0,54.55,137.2Z" transform="translate(-37.666 -101.271)" fill="#1d2a3a"/>
      <path id="Path_499" data-name="Path 499" d="M68.781,128.577a.261.261,0,0,0-.261.261v7.135a.273.273,0,0,0,.546,0v-7.127a.261.261,0,0,0-.285-.269Z" transform="translate(-50.62 -94.995)" fill="#1d2a3a"/>
      <path id="Path_500" data-name="Path 500" d="M79.4,140.433a.27.27,0,0,0-.478.065,2.155,2.155,0,0,1-.8,1.045,2.115,2.115,0,0,1-1.256.4,2.074,2.074,0,0,1-1.721-.836,1.494,1.494,0,0,1-.159-.222l.068-.031c.073-.037.133-.063.18-.084q.679-.3,1.988-.9t2-.9a.246.246,0,0,0,.138-.159.261.261,0,0,0-.016-.2,2.725,2.725,0,1,0,.1,2.034A.261.261,0,0,0,79.4,140.433Zm-4.074-2.186a2.166,2.166,0,0,1,3.2.146c.06.068.12.146.18.23l-1.967.885c-.854.387-1.515.684-1.974.9a1.708,1.708,0,0,1-.065-.3,2.534,2.534,0,0,1-.021-.316,2.071,2.071,0,0,1,.645-1.538Z" transform="translate(-54.834 -101.242)" fill="#1d2a3a"/>
      <path id="Path_501" data-name="Path 501" d="M141.483,137.07a2.729,2.729,0,1,0,1.8,4.774,2.66,2.66,0,0,0,.379-.4v.817a.261.261,0,0,0,.261.261h.016a.261.261,0,0,0,.261-.261V139.8a2.737,2.737,0,0,0-2.729-2.729Zm0,.559a2.173,2.173,0,1,1,0,4.346,2.105,2.105,0,0,1-1.536-.64,2.157,2.157,0,0,1,0-3.071A2.11,2.11,0,0,1,141.483,137.629Z" transform="translate(-102.507 -101.271)" fill="#1d2a3a"/>
      <path id="Path_502" data-name="Path 502" d="M164.729,131.341a.279.279,0,1,0,0-.559h-1.2v-1.948a.274.274,0,0,0-.548,0v6.09a1.256,1.256,0,0,0,.387.927,1.274,1.274,0,0,0,.925.4h.431a.277.277,0,0,0,0-.551h-.431a.784.784,0,0,1-.77-.763v-3.594Z" transform="translate(-120.409 -94.984)" fill="#1d2a3a"/>
      <path id="Path_503" data-name="Path 503" d="M177.265,140.315a.261.261,0,0,0-.261.183,2.155,2.155,0,0,1-.8,1.045,2.115,2.115,0,0,1-1.256.4,2.074,2.074,0,0,1-1.721-.836,1.492,1.492,0,0,1-.159-.222l.07-.031c.071-.037.131-.063.178-.084q.676-.3,1.99-.9t2-.9a.245.245,0,0,0,.138-.159.261.261,0,0,0-.016-.2,2.726,2.726,0,1,0,.1,2.034.25.25,0,0,0-.256-.342Zm-3.857-2.068a2.166,2.166,0,0,1,3.2.146c.06.068.12.146.18.23l-1.954.878-1.974.9a1.707,1.707,0,0,1-.065-.3,2.538,2.538,0,0,1-.018-.316,2.068,2.068,0,0,1,.642-1.538Z" transform="translate(-127.298 -101.242)" fill="#1d2a3a"/>
      <path id="Path_504" data-name="Path 504" d="M197.151,140.068a2.612,2.612,0,0,0-.977-.41,2.938,2.938,0,0,1-.823-.316.815.815,0,0,1-.373-.731.927.927,0,0,1,.261-.671.9.9,0,0,1,.666-.261h1a.279.279,0,1,0,0-.559h-.982a1.507,1.507,0,0,0-1.5,1.5,1.353,1.353,0,0,0,.452,1.079,2.842,2.842,0,0,0,1.06.478,3.043,3.043,0,0,1,.752.261.687.687,0,0,1,.3.642.9.9,0,0,1-.279.669.914.914,0,0,1-.671.277h-1.4a.272.272,0,0,0,0,.543h1.4a1.462,1.462,0,0,0,1.066-.441,1.436,1.436,0,0,0,.439-1.045A1.246,1.246,0,0,0,197.151,140.068Z" transform="translate(-143.607 -101.308)" fill="#1d2a3a"/>
      <path id="Path_505" data-name="Path 505" d="M3.935,136.147a3.949,3.949,0,1,1,3.04-6.464.316.316,0,1,1-.486.4,3.314,3.314,0,1,0,.084,4.124.316.316,0,0,1,.5.381A3.918,3.918,0,0,1,3.935,136.147Z" transform="translate(0.018 -94.754)" fill="#1d2a3a"/>
      <path id="Path_506" data-name="Path 506" d="M109.879,136.148a3.949,3.949,0,1,1,2.766-6.764.316.316,0,0,1-.441.452,3.314,3.314,0,1,0,.977,2.682h-2.737a.316.316,0,1,1,0-.632h3.077a.316.316,0,0,1,.316.316A3.951,3.951,0,0,1,109.879,136.148Z" transform="translate(-78.257 -94.754)" fill="#1d2a3a"/>
      <path id="Path_19601" data-name="Path 19601" d="M3.935,136.147a3.949,3.949,0,1,1,3.04-6.464.316.316,0,1,1-.486.4,3.314,3.314,0,1,0,.084,4.124.316.316,0,0,1,.5.381A3.918,3.918,0,0,1,3.935,136.147Z" transform="translate(0.018 -94.754)" fill="#1d2a3a"/>
    </g>
  </g>
</svg>
